<svg xmlns="http://www.w3.org/2000/svg" xmlns:xlink="http://www.w3.org/1999/xlink" width="680" height="850" viewBox="0 0 680 850"><defs><clipPath id="a"><rect width="680" height="850" transform="translate(682 3363)" fill="#fff" stroke="#707070" stroke-width="1" opacity="0.47"/></clipPath><clipPath id="b"><path d="M0-627.495H506.3v276.26H0Z" transform="translate(0 627.495)" fill="none"/></clipPath><clipPath id="c"><rect width="506.294" height="276.26" fill="none"/></clipPath><clipPath id="d"><rect width="493.641" height="6.018" fill="none"/></clipPath><clipPath id="e"><rect width="89.914" height="114.007" fill="none"/></clipPath><clipPath id="f"><rect width="169.676" height="134.62" fill="none"/></clipPath><clipPath id="g"><rect width="87.947" height="100.888" fill="none"/></clipPath><clipPath id="h"><rect width="27.345" height="27.345" fill="none"/></clipPath><clipPath id="i"><rect width="18.498" height="16.319" fill="none"/></clipPath><clipPath id="j"><rect width="10.954" height="6.046" fill="none"/></clipPath><clipPath id="l"><rect width="46.637" height="24.012" fill="none"/></clipPath><clipPath id="m"><rect width="24.4" height="27.463" fill="none"/></clipPath><clipPath id="n"><rect width="34.204" height="20.468" fill="none"/></clipPath></defs><g transform="translate(-682 -3363)" clip-path="url(#a)"><path d="M-19.848,398.223,587.5,107.8,499.772,731.951,195.727,876.211,29.507,791.924Z" transform="translate(769.233 3333.89) rotate(-8)" fill="#54b192"/><ellipse cx="265" cy="261" rx="265" ry="261" transform="matrix(0.996, -0.087, 0.087, 0.996, 662.666, 3713.377)" fill="#54b192"/><g transform="translate(736.849 4377.607)"><g transform="translate(0 -627.495)" clip-path="url(#b)"><g opacity="0.1"><g clip-path="url(#c)"><g transform="translate(0 0)"><path d="M-636.879-325.85a83.006,83.006,0,0,1-7.225,13.895,59.755,59.755,0,0,1-4.376,6.018.322.322,0,0,1-.048.053H-1137.81l.066-.053c.44-.343,3.025-2.435,7.044-6.018,2.884-2.567,6.5-5.9,10.566-9.919,33.235-32.689,97.077-110.065,43.907-180.947-49.428-65.894,3.791-77.851,38.9-79.247a100.292,100.292,0,0,1,39.562,6.467,351.493,351.493,0,0,0,84.481,19.944c1.268.141,2.545.282,3.839.409a369.877,369.877,0,0,0,61.539,1.118c.6-.035,1.211-.079,1.823-.123a365.69,365.69,0,0,0,60.192-9.311c1.281-.313,2.545-.608,3.8-.9,65.876-15.242,126.605,36.7,111.421,95.409-5.613,21.714-4.187,44.858,14.529,63.582,30.642,30.563,26.931,60.663,19.261,79.625" transform="translate(1137.81 582.145)" fill="#38d29f"/></g></g></g><g transform="translate(0.066 248.881)"><path d="M-636.795-9.426a83,83,0,0,1-7.225,13.895,59.755,59.755,0,0,1-4.376,6.018H-1137.66c.44-.343,3.025-2.435,7.044-6.018,2.884-2.567,6.5-5.9,10.566-9.919l51.568-10.654a10.028,10.028,0,0,1,2.025-.207l54.975-.079h.057l27.23-.035h.062l22.981-.026H-930.7l63.142-.088h27.168l10.844-.123h3.584l31.54-.044H-779.5l36.431-.048h10.848l34.508-.048,29.128-.035a10.319,10.319,0,0,1,2.408.286Z" transform="translate(1137.66 16.84)" fill="#454a69"/></g><g transform="translate(0.066 270.189)" opacity="0.4"><g transform="translate(0 0)"><g clip-path="url(#d)"><g transform="translate(0)"><path d="M-8.956,0h486.6a59.749,59.749,0,0,1-4.376,6.018H-16c.431-.365,3.016-2.457,7.044-6.018" transform="translate(16)"/></g></g></g></g><g transform="translate(212.735 84.488)"><path d="M-33.47-32.913c.48,2.725.735,5.723-.656,8.1-1.853,3.187-5.9,4.2-9.51,4.927l-12.547,2.509a4.87,4.87,0,0,0-2.4.951A4.2,4.2,0,0,0-59.7-13.682c-.506,4.543,1.1,9.021,2.567,13.349,2.963,8.766,5.45,17.716,9.2,26.173s8.889,16.532,16.228,22.185,17.051,8.664,26.037,6.454C2.155,52.555,8.574,47.03,14.108,41.17c4.565-4.843,8.836-10.126,11.051-16.408,1.528-4.315,2.025-8.911,2.505-13.463Q28.778.829,29.892-9.641c.348-3.276.577-6.96-1.55-9.474a11.285,11.285,0,0,0-3.5-2.523c-4.816-2.558-9.888-4.671-14.37-7.753S2.019-36.717.658-41.982c-.814-3.161-.669-6.6-2.056-9.549a12.893,12.893,0,0,0-8.365-6.52,28.531,28.531,0,0,0-10.866-.44c-3.628.409-17.61,1.457-19.112,5.547-.806,2.2,2.536,6.925,3.328,9.091a63.491,63.491,0,0,1,2.941,10.94" transform="translate(59.796 58.8)" fill="#eeb7b8"/></g><g transform="translate(212.735 84.488)" opacity="0.1"><g clip-path="url(#e)"><g transform="translate(0 0)"><path d="M-33.47-32.913c.48,2.725.735,5.723-.656,8.1-1.853,3.187-5.9,4.2-9.51,4.927l-12.547,2.509a4.87,4.87,0,0,0-2.4.951A4.2,4.2,0,0,0-59.7-13.682c-.506,4.543,1.1,9.021,2.567,13.349,2.963,8.766,5.45,17.716,9.2,26.173s8.889,16.532,16.228,22.185,17.051,8.664,26.037,6.454C2.155,52.555,8.574,47.03,14.108,41.17c4.565-4.843,8.836-10.126,11.051-16.408,1.528-4.315,2.025-8.911,2.505-13.463Q28.778.829,29.892-9.641c.348-3.276.577-6.96-1.55-9.474a11.285,11.285,0,0,0-3.5-2.523c-4.816-2.558-9.888-4.671-14.37-7.753S2.019-36.717.658-41.982c-.814-3.161-.669-6.6-2.056-9.549a12.893,12.893,0,0,0-8.365-6.52,28.531,28.531,0,0,0-10.866-.44c-3.628.409-17.61,1.457-19.112,5.547-.806,2.2,2.536,6.925,3.328,9.091a63.491,63.491,0,0,1,2.941,10.94" transform="translate(59.796 58.8)"/></g></g></g><g transform="translate(207.009 115.03)"><path d="M-111.138-84.56c23,19.364,53.419-4,51.05-12.619,1.413.511,23.7,4.734,24.69,5.861a9.2,9.2,0,0,1,1.73,4.094,119.52,119.52,0,0,1,2.523,14.912c1.321,12.424.665,24.958,0,37.422L-33.1,3.162a3.634,3.634,0,0,1-.321,1.567A3.384,3.384,0,0,1-35.98,6.072a55.537,55.537,0,0,1-11.478.37c-26.944-1.021-54.029-2.589-80.8.678q.18-5.939-.189-11.887c-1.061-17.122-5.5-33.825-9.857-50.414-2.54-9.686-5-20.252-.911-29.378a12.587,12.587,0,0,1,2.549-3.883c1.739-1.7,15.635-.98,17.986-1.623" transform="translate(141.392 98.167)" fill="#fff"/></g><g transform="translate(175.25 113.992)"><path d="M-148.027-175.1c45.9,15.711,56.026-8.132,55.229-16.444-.136-1.453-1.167-1.691,0-2.567a4.644,4.644,0,0,1,2.571-.669c8.3-.493,17.425-.4,23.858,4.869,1.959,1.6,3.548,3.606,5.464,5.257,4.561,3.962,11.006,5.979,13.934,11.24a39,39,0,0,1,2.223,5.877c1.682,4.667,4.592,8.77,7.484,12.807-2.8,11.834-6.027,23.677-8.832,35.511a155.287,155.287,0,0,1-5.877,20.56c-1.691,4.359-3.817,8.805-3.3,13.472a30.761,30.761,0,0,0,1.352,5.362,61.637,61.637,0,0,1,2.593,19.164l-125.624.308c6.018-8.629,7.784-19.213,7.172-29.713a32.468,32.468,0,0,0-3.962-14.449c-3.989-6.824-11.006-11.271-17.923-15.079-4.843-2.642-10.042,12.222-15.277,10.518.845-5.979,1.233-29.057.88-35.075a16.072,16.072,0,0,1,.317-5.882c.414-1.29,1.175-2.443,1.691-3.7,2.065-5.023.1-11.447,3.434-15.722,2.307-2.972,6.353-3.817,9.642-5.649,3.377-1.884,5.988-4.843,8.928-7.37a39.7,39.7,0,0,1,20.322-9.074,25.6,25.6,0,0,1,3.879,11.447" transform="translate(206.94 194.975)" fill="#38d29f"/></g><g transform="translate(290.506 25.992)" opacity="0.1"><g transform="translate(-115 88)"><g clip-path="url(#f)"><g transform="translate(0 0)"><path d="M-152.011-172.405c51.366,10.939,60.01-10.83,59.213-19.142-.136-1.453-1.167-1.691,0-2.567a4.644,4.644,0,0,1,2.571-.669c8.3-.493,17.425-.4,23.858,4.869,1.959,1.6,3.548,3.606,5.464,5.257,4.561,3.962,11.006,5.979,13.934,11.24a39,39,0,0,1,2.223,5.877c1.682,4.667,4.592,8.77,7.484,12.807-2.8,11.834-6.027,23.677-8.832,35.511a155.287,155.287,0,0,1-5.877,20.56c-1.691,4.359-3.817,8.805-3.3,13.472a30.761,30.761,0,0,0,1.352,5.362,61.637,61.637,0,0,1,2.593,19.164l-125.624.308c6.018-8.629,7.784-19.213,7.172-29.713a32.468,32.468,0,0,0-3.962-14.449c-3.989-6.824-11.006-11.271-17.923-15.079-4.843-2.642-10.042,12.222-15.277,10.518.845-5.979,1.233-29.057.88-35.075a16.072,16.072,0,0,1,.317-5.882c.414-1.29,1.175-2.443,1.691-3.7,2.065-5.023.1-11.447,3.434-15.722,2.307-2.972,6.353-3.817,9.642-5.649,3.377-1.884,5.988-4.843,8.928-7.37a39.7,39.7,0,0,1,20.322-9.074,25.6,25.6,0,0,1,3.879,11.447c.225,2.558.062,5.151.418,7.7" transform="translate(206.94 194.975)"/></g></g></g></g><g transform="translate(221.974 33.898)"><path d="M-49.842,0c19.815,0,35.878,22.856,35.878,51.051S-30.027,102.1-49.842,102.1-85.72,79.246-85.72,51.051-69.657,0-49.842,0" transform="matrix(1, 0.017, -0.017, 1, 88.296, -12.203)" fill="#eeb7b8"/></g><g transform="translate(262.073 224.894)"><path d="M-40.918-2.834C-47.443-3.913-54.065-6-60.534-4.6A26.8,26.8,0,0,0-70.83.512c1.715,1.431,3.716,2.708,4.806,4.7a19.014,19.014,0,0,1,1.512,4.345,38.38,38.38,0,0,1,1.478,8.083,12.7,12.7,0,0,1-1.993,7.823c8.226.845,16.2-1.268,24.223-3.333a6.481,6.481,0,0,0,2.563-1.079c1.267-1.039,1.639-2.888,1.647-4.574a32.5,32.5,0,0,0-1.634-8.836c-.98-3.465-1.706-7.031-2.69-10.474" transform="translate(70.83 5.064)" fill="#fff"/></g><g transform="translate(287.397 152.584)"><path d="M-65.842-.357c3.377.44,6,3.165,7.925,5.966,5.411,7.793,7.744,17.241,10.342,26.367a350.964,350.964,0,0,0,11.39,33.513,50.391,50.391,0,0,0,3.416,7.352c1.087,1.818,2.408,3.566,2.888,5.631,1.162,4.993-2.954,9.686-7.247,12.468a28.682,28.682,0,0,1-7.418,3.575,44.184,44.184,0,0,1-7.889,1.347L-76.875,98.5c-11.249,1.224-22.6,2.448-33.852,1.268-.709-2.465.682-4.209.581-6.776a15.134,15.134,0,0,0-1.6-5.235,33.465,33.465,0,0,1-2.611-9.47,12.838,12.838,0,0,0-.63-3.553,3.33,3.33,0,0,0-2.642-2.2c6.6-.656,11.618-1.9,18.222-2.562,2.452-.247,5-.524,7.093-1.827,2.593-1.616,4.046-4.53,5.2-7.357,2.857-7,4.7-14.713,3.2-22.127-1.233-6.08-4.671-11.742-4.654-17.945a26.85,26.85,0,0,1,2.747-10.654c1.576-3.575,3.632-7.229,7.093-9.043S-69.747-.885-65.842-.357" transform="translate(117.63 0.638)" fill="#38d29f"/></g><g transform="translate(287.397 152.584)" opacity="0.08"><g clip-path="url(#g)"><g transform="translate(0 0)"><path d="M-65.842-.357c3.377.44,6,3.165,7.925,5.966,5.411,7.793,7.744,17.241,10.342,26.367a350.964,350.964,0,0,0,11.39,33.513,50.391,50.391,0,0,0,3.416,7.352c1.087,1.818,2.408,3.566,2.888,5.631,1.162,4.993-2.954,9.686-7.247,12.468a28.682,28.682,0,0,1-7.418,3.575,44.184,44.184,0,0,1-7.889,1.347L-76.875,98.5c-11.249,1.224-22.6,2.448-33.852,1.268-.709-2.465.682-4.209.581-6.776a15.134,15.134,0,0,0-1.6-5.235,33.465,33.465,0,0,1-2.611-9.47,12.838,12.838,0,0,0-.63-3.553,3.33,3.33,0,0,0-2.642-2.2c6.6-.656,11.618-1.9,18.222-2.562,2.452-.247,5-.524,7.093-1.827,2.593-1.616,4.046-4.53,5.2-7.357,2.857-7,4.7-14.713,3.2-22.127-1.233-6.08-4.671-11.742-4.654-17.945a26.85,26.85,0,0,1,2.747-10.654c1.576-3.575,3.632-7.229,7.093-9.043S-69.747-.885-65.842-.357" transform="translate(117.63 0.638)"/></g></g></g><g transform="translate(102.048 229.501)"><path d="M-13.994,0h5.332A11.007,11.007,0,0,1,2.345,11.006V27.345H-25V11.006A11.007,11.007,0,0,1-13.994,0Z" transform="translate(25)" fill="#3e3c55"/></g><g transform="translate(102.048 229.501)" opacity="0.1"><g transform="translate(0 0)"><g clip-path="url(#h)"><g transform="translate(0)"><path d="M-13.994,0h5.332A11.007,11.007,0,0,1,2.345,11.006V27.345H-25V11.006A11.007,11.007,0,0,1-13.994,0Z" transform="translate(25)"/></g></g></g></g><g transform="translate(112.438 231.138)"><path d="M-2.782,0A2.188,2.188,0,0,1-.594,2.188,2.188,2.188,0,0,1-2.782,4.376,2.188,2.188,0,0,1-4.97,2.188,2.188,2.188,0,0,1-2.782,0" transform="translate(4.97)" fill="#3e3c55"/></g><g transform="translate(112.438 228.404)"><path d="M-2.782,0A2.188,2.188,0,0,1-.594,2.188,2.188,2.188,0,0,1-2.782,4.376,2.188,2.188,0,0,1-4.97,2.188,2.188,2.188,0,0,1-2.782,0" transform="translate(4.97)" fill="#3e3c55"/></g><g transform="translate(112.438 225.67)"><path d="M-2.782,0A2.188,2.188,0,0,1-.594,2.188,2.188,2.188,0,0,1-2.782,4.376,2.188,2.188,0,0,1-4.97,2.188,2.188,2.188,0,0,1-2.782,0" transform="translate(4.97)" fill="#3e3c55"/></g><g transform="translate(112.438 222.936)"><path d="M-2.782,0A2.188,2.188,0,0,1-.594,2.188,2.188,2.188,0,0,1-2.782,4.376,2.188,2.188,0,0,1-4.97,2.188,2.188,2.188,0,0,1-2.782,0" transform="translate(4.97)" fill="#3e3c55"/></g><g transform="translate(112.438 220.202)"><path d="M-2.782,0A2.188,2.188,0,0,1-.594,2.188,2.188,2.188,0,0,1-2.782,4.376,2.188,2.188,0,0,1-4.97,2.188,2.188,2.188,0,0,1-2.782,0" transform="translate(4.97)" fill="#3e3c55"/></g><g transform="translate(112.438 217.468)"><path d="M-2.782,0A2.188,2.188,0,0,1-.594,2.188,2.188,2.188,0,0,1-2.782,4.376,2.188,2.188,0,0,1-4.97,2.188,2.188,2.188,0,0,1-2.782,0" transform="translate(4.97)" fill="#3e3c55"/></g><g transform="translate(112.438 214.73)"><path d="M-2.782,0A2.188,2.188,0,0,1-.594,2.188,2.188,2.188,0,0,1-2.782,4.376,2.188,2.188,0,0,1-4.97,2.188,2.188,2.188,0,0,1-2.782,0" transform="translate(4.97)" fill="#3e3c55"/></g><g transform="translate(115.722 215.826)"><path d="M-2.782,0A2.188,2.188,0,0,1-.594,2.188,2.188,2.188,0,0,1-2.782,4.376,2.188,2.188,0,0,1-4.97,2.188,2.188,2.188,0,0,1-2.782,0" transform="translate(4.97)" fill="#3e3c55"/></g><g transform="translate(117.91 214.73)"><path d="M-2.782,0A2.188,2.188,0,0,1-.594,2.188,2.188,2.188,0,0,1-2.782,4.376,2.188,2.188,0,0,1-4.97,2.188,2.188,2.188,0,0,1-2.782,0" transform="translate(4.97)" fill="#3e3c55"/></g><g transform="translate(120.098 213.638)"><path d="M-2.782,0A2.188,2.188,0,0,1-.594,2.188,2.188,2.188,0,0,1-2.782,4.376,2.188,2.188,0,0,1-4.97,2.188,2.188,2.188,0,0,1-2.782,0" transform="translate(4.97)" fill="#3e3c55"/></g><g transform="translate(112.438 211.996)"><path d="M-2.782,0A2.188,2.188,0,0,1-.594,2.188,2.188,2.188,0,0,1-2.782,4.376,2.188,2.188,0,0,1-4.97,2.188,2.188,2.188,0,0,1-2.782,0" transform="translate(4.97)" fill="#3e3c55"/></g><g transform="translate(112.438 209.262)"><path d="M-2.782,0A2.188,2.188,0,0,1-.594,2.188,2.188,2.188,0,0,1-2.782,4.376,2.188,2.188,0,0,1-4.97,2.188,2.188,2.188,0,0,1-2.782,0" transform="translate(4.97)" fill="#3e3c55"/></g><g transform="translate(112.438 206.528)"><path d="M-2.782,0A2.188,2.188,0,0,1-.594,2.188,2.188,2.188,0,0,1-2.782,4.376,2.188,2.188,0,0,1-4.97,2.188,2.188,2.188,0,0,1-2.782,0" transform="translate(4.97)" fill="#3e3c55"/></g><g transform="translate(112.438 203.794)"><path d="M-2.782,0A2.188,2.188,0,0,1-.594,2.188,2.188,2.188,0,0,1-2.782,4.376,2.188,2.188,0,0,1-4.97,2.188,2.188,2.188,0,0,1-2.782,0" transform="translate(4.97)" fill="#3e3c55"/></g><g transform="translate(105.332 191.209)"><path d="M-23.369-9.81q-.819.119-1.638.172A12.578,12.578,0,0,0-23.6-11.082a9.252,9.252,0,0,0-1.321-2.567,4.5,4.5,0,0,1-1.761.555c-.542.079-1.087.136-1.633.176a27.279,27.279,0,0,0,2.091-2.2,9.29,9.29,0,0,0-13.121.645A9.29,9.29,0,0,0-38.7-1.354,9.29,9.29,0,0,0-25.578-2a9.29,9.29,0,0,0,2.406-6.249,9.131,9.131,0,0,0-.141-1.6Z" transform="translate(41.75 17.526)" fill="#38d29f"/></g><g transform="translate(122.295 208.722)"><path d="M-11.078-1.363a4.245,4.245,0,0,1-1.84.612c-.542.079-1.087.141-1.633.176a16.016,16.016,0,0,0,1.62-1.682,5.477,5.477,0,0,0-6.681,3.918A5.477,5.477,0,0,0-15.7,8.342,5.477,5.477,0,0,0-9.014,4.424a5.476,5.476,0,0,0-2.064-5.8Z" transform="translate(19.791 2.435)" fill="#38d29f"/></g><g transform="translate(109.158 215.826)"><path d="M-2.782,0A2.188,2.188,0,0,1-.594,2.188,2.188,2.188,0,0,1-2.782,4.376,2.188,2.188,0,0,1-4.97,2.188,2.188,2.188,0,0,1-2.782,0" transform="translate(4.97)" fill="#3e3c55"/></g><g transform="translate(106.97 214.73)"><path d="M-2.782,0A2.188,2.188,0,0,1-.594,2.188,2.188,2.188,0,0,1-2.782,4.376,2.188,2.188,0,0,1-4.97,2.188,2.188,2.188,0,0,1-2.782,0" transform="translate(4.97)" fill="#3e3c55"/></g><g transform="translate(104.782 213.638)"><path d="M-2.782,0A2.188,2.188,0,0,1-.594,2.188,2.188,2.188,0,0,1-2.782,4.376,2.188,2.188,0,0,1-4.97,2.188,2.188,2.188,0,0,1-2.782,0" transform="translate(4.97)" fill="#3e3c55"/></g><g transform="translate(96.006 208.722)"><path d="M-2.85-1.363a4.245,4.245,0,0,0,1.84.612C-.469-.672.077-.61.623-.575A15.59,15.59,0,0,1-1-2.257a5.477,5.477,0,1,1-1.853.881Z" transform="translate(5.092 2.435)" fill="#38d29f"/></g><g transform="translate(102.034 231.121)"><path d="M-14.01,0h5.332A11.007,11.007,0,0,1,2.328,11.006V25.478A1.867,1.867,0,0,1,.461,27.345H-23.163a1.867,1.867,0,0,1-1.867-1.867V11.006A11.007,11.007,0,0,1-14.024,0Z" transform="translate(25.03)" fill="#3e3c55"/></g><g transform="translate(105.409 191.287)" opacity="0.1"><g transform="translate(0 0)"><g clip-path="url(#i)"><g transform="translate(17.749 8.236)"><path d="M-.9,0a8.223,8.223,0,0,1-.7.669A7.156,7.156,0,0,0-.852.6C-.86.4-.874.2-.9,0" transform="translate(1.6)"/></g><g transform="translate(14.465 3.798)"><path d="M0-2.317c.55-.035,1.092-.092,1.638-.172A5.282,5.282,0,0,0,3.06-2.876,9.634,9.634,0,0,0,2.294-4.14a3.308,3.308,0,0,1-.881.374A12.693,12.693,0,0,1,0-2.317" transform="translate(0 4.14)"/></g><g transform="translate(0 0)"><path d="M-1.291-13.119a9.28,9.28,0,0,1,9.263-9.3,9.281,9.281,0,0,1,5.046,1.48l.141-.15a9.289,9.289,0,0,0-13.115.765A9.289,9.289,0,0,0,.808-7.208l.1.09a9.245,9.245,0,0,1-2.2-6" transform="translate(2.306 23.437)"/></g></g></g></g><g transform="translate(122.286 208.715)" opacity="0.1"><g clip-path="url(#j)"><g transform="translate(5.248 1.067)"><path d="M0-2.407c.546-.035,1.092-.092,1.633-.172a4.249,4.249,0,0,0,1.84-.616A5.471,5.471,0,0,1,5.675.679,5.047,5.047,0,0,0,5.706.1,5.45,5.45,0,0,0,3.5-4.3a4.245,4.245,0,0,1-1.84.612l-.44.057A11.155,11.155,0,0,1,0-2.407" transform="translate(0 4.3)"/></g><g transform="translate(0 0)"><path d="M-6.952-1.39a4.527,4.527,0,0,1,.546.04c.286-.3.568-.63.854-.947a5.459,5.459,0,0,0-6.683,3.865,5.445,5.445,0,0,0-.185,1.418,3.749,3.749,0,0,0,.026.546A5.468,5.468,0,0,1-6.952-1.39" transform="translate(12.42 2.483)"/></g></g></g><g transform="translate(96.016 208.715)" opacity="0.1"><g clip-path="url(#j)"><g transform="translate(0 1.067)"><path d="M-7.254-2.407C-7.8-2.442-8.346-2.5-8.888-2.579a4.249,4.249,0,0,1-1.84-.616,5.471,5.471,0,0,0-2.2,3.874A4.948,4.948,0,0,1-12.96.1a5.45,5.45,0,0,1,2.2-4.4,4.245,4.245,0,0,0,1.84.612l.44.057A10.433,10.433,0,0,0-7.254-2.407" transform="translate(12.96 4.3)"/></g><g transform="translate(4.086 0)"><path d="M-1.78-1.39a4.606,4.606,0,0,0-.55.04c-.282-.3-.564-.63-.85-.947A5.459,5.459,0,0,1,3.5,1.569a5.446,5.446,0,0,1,.185,1.418,3.749,3.749,0,0,1-.026.546A5.468,5.468,0,0,0-1.78-1.39" transform="translate(3.18 2.483)"/></g></g></g><g transform="translate(41.825 239.745)"><path d="M-57.01-30.529h-43.013a1.827,1.827,0,0,1-1.827-1.827V-52.713a1.827,1.827,0,0,1,1.827-1.828,1.83,1.83,0,0,1,.784.177c12.358,5.864,25.672,7.876,41.384.092a1.831,1.831,0,0,1,2.453.833,1.831,1.831,0,0,1,.189.8v20.252a1.827,1.827,0,0,1-1.8,1.858Z" transform="translate(101.85 54.541)" fill="#38d29f"/></g><g transform="translate(41.825 239.745)" opacity="0.1"><g transform="translate(0 0)"><g clip-path="url(#l)"><g transform="translate(0 0)"><path d="M-57.01-30.529h-43.013a1.827,1.827,0,0,1-1.827-1.827V-52.713a1.827,1.827,0,0,1,1.827-1.828,1.83,1.83,0,0,1,.784.177c12.358,5.864,25.672,7.876,41.384.092a1.831,1.831,0,0,1,2.453.833,1.831,1.831,0,0,1,.189.8v20.252a1.827,1.827,0,0,1-1.8,1.858Z" transform="translate(101.85 54.541)"/></g></g></g></g><g transform="translate(62.314 241.616)"><path d="M-3.235,0C-1.83,0-.691,1.492-.691,3.333S-1.83,6.666-3.235,6.666-5.78,5.173-5.78,3.333-4.641,0-3.235,0" transform="translate(5.78)" fill="#3e3c55"/></g><g transform="translate(62.314 237.544)"><path d="M-3.235,0C-1.83,0-.691,1.492-.691,3.333S-1.83,6.666-3.235,6.666-5.78,5.173-5.78,3.333-4.641,0-3.235,0" transform="translate(5.78)" fill="#3e3c55"/></g><g transform="translate(62.314 233.467)"><path d="M-3.235,0C-1.83,0-.691,1.492-.691,3.333S-1.83,6.666-3.235,6.666-5.78,5.173-5.78,3.333-4.641,0-3.235,0" transform="translate(5.78)" fill="#3e3c55"/></g><g transform="translate(62.314 229.395)"><path d="M-3.235,0C-1.83,0-.691,1.492-.691,3.333S-1.83,6.666-3.235,6.666-5.78,5.173-5.78,3.333-4.641,0-3.235,0" transform="translate(5.78)" fill="#3e3c55"/></g><g transform="translate(62.314 225.318)"><path d="M-3.235,0C-1.83,0-.691,1.492-.691,3.333S-1.83,6.666-3.235,6.666-5.78,5.173-5.78,3.333-4.641,0-3.235,0" transform="translate(5.78)" fill="#3e3c55"/></g><g transform="translate(62.314 221.241)"><path d="M-3.235,0C-1.83,0-.691,1.492-.691,3.333S-1.83,6.666-3.235,6.666-5.78,5.173-5.78,3.333-4.641,0-3.235,0" transform="translate(5.78)" fill="#3e3c55"/></g><g transform="translate(62.314 217.169)"><path d="M-3.235,0C-1.83,0-.691,1.492-.691,3.333S-1.83,6.666-3.235,6.666-5.78,5.173-5.78,3.333-4.641,0-3.235,0" transform="translate(5.78)" fill="#3e3c55"/></g><g transform="translate(52.614 172.824)"><path d="M-27.7-25.162a12.952,12.952,0,0,0,.947-1.4l-6.692-1.1,7.238.053a12.2,12.2,0,0,0,.233-9.686l-9.708,5.037,8.955-6.6A12.2,12.2,0,0,0-43.4-43.313a12.2,12.2,0,0,0-4.455,16.668,12.208,12.208,0,0,0,.972,1.434,11.939,11.939,0,0,0-1.391,2.223l8.682,4.561-9.245-3.126a12.214,12.214,0,0,0,1.968,11.447A12.2,12.2,0,0,0-44.821,7.026,12.2,12.2,0,0,0-27.69,4.979a12.2,12.2,0,0,0,0-15.084,12.2,12.2,0,0,0,0-15.083Z" transform="translate(49.493 44.953)" fill="#38d29f"/></g><g transform="translate(52.606 199.978)" opacity="0.1"><g clip-path="url(#m)"><g transform="translate(0 0)"><path d="M0-.229A12.146,12.146,0,0,0,2.61,7.313a12.2,12.2,0,1,0,19.178,0C23.421,5.24,0-1.6,0-.229" transform="translate(0.001 0.408)"/></g></g></g><g transform="translate(41.825 239.745)"><path d="M-57.01-31.9h-43.013a1.827,1.827,0,0,1-1.827-1.827V-55.163a1.827,1.827,0,0,1,1.827-1.828,1.83,1.83,0,0,1,.784.177c12.358,5.864,22.158,12.7,41.384.092a1.791,1.791,0,0,1,2.642,1.633v21.353a1.827,1.827,0,0,1-1.8,1.836" transform="translate(101.85 56.991)" fill="#38d29f"/></g><g transform="translate(308.186 236.562)"><path d="M-124.162-28.239l-63.459,8.4-3.174.418L-221.82-36v-3.879l96.954-10.575Z" transform="translate(221.82 50.45)" fill="#9c9ca0"/></g><g transform="translate(326.166 244.672)"><path d="M0-10.3,68.746-18.41l-.7,12.693L14.493-1.79Z" transform="translate(0 18.41)" fill="#929397"/></g><g transform="translate(308.181 247.137)" opacity="0.4"><g transform="translate(0 0)"><g clip-path="url(#n)"><g transform="translate(0 0)"><path d="M-43.486-20.167V-16l-3.174.44L-77.69-32.151V-36.03l29.616,15.849s3.883.365,4.588.013" transform="translate(77.69 36.03)"/></g></g></g></g><g transform="translate(340.223 189.054)"><path d="M-18.237-9.969-32.483,56.092a4.218,4.218,0,0,0,3.227,5.017,4.218,4.218,0,0,0,1.449.059L62.327,49.237a4.217,4.217,0,0,0,3.452-2.853L85.224-12.258A4.226,4.226,0,0,0,82.536-17.6a4.223,4.223,0,0,0-1.521-.209L-14.309-13.28a4.226,4.226,0,0,0-3.927,3.311" transform="translate(32.58 17.81)" fill="#3e3c55"/></g><g transform="translate(399.166 217.191)"><path d="M-.042-4.527c.221-2.1,1.5-3.694,2.848-3.552S5.074-6.117,4.853-4.013,3.357-.319,2.005-.461-.263-2.423-.042-4.527" transform="translate(0.075 8.088)" fill="#fff"/></g><path d="M201.505,89.742s10.207-22.931,11.864-24.256,9.776,3.314,9.776,3.314l6.794,5.8-3.811,14.25L222.4,103.313,219,117.846l-1.988,5.468-6.131-1.657-15.41.827Z" fill="#3e3d56"/><g transform="translate(182.824 78.927)"><path d="M-4.223-86.732c1.6-3.8,3.223-7.713,3.267-11.83.048-4.451-1.761-8.678-3.143-12.9A74.632,74.632,0,0,1-7.495-127.4a2.2,2.2,0,0,1,.22-1.528,2.624,2.624,0,0,1,1.691-.757c3.047-.7,5.349-3.157,7.251-5.635a61.781,61.781,0,0,0,7.423-12.4c1.457-3.245,3.43-7.2,6.987-7.233a201.844,201.844,0,0,1-5.318,19.922c3.72-.951,7.255-2.333,10.976-3.284a6.583,6.583,0,0,1,2.254-.3,3.4,3.4,0,0,1,2.3,5.076c1.818,2.131,4.843,2.7,7.22,4.165s4.086,5.081,1.972,6.916a5.9,5.9,0,0,0-1.237,1.065c-1.021,1.576,1.479,3.386,1.272,5.252-.167,1.528-2.126,2.241-3.61,1.836s-2.642-1.514-3.962-2.329-3.047-1.321-4.328-.475c-.343,4.143-.713,8.365-2.505,12.138-.656,1.378-1.5,2.668-2.025,4.1a20.187,20.187,0,0,0-.933,4.812l-1.6,14.612C8.927-79.917,2.09-82.2-4.223-86.732" transform="translate(7.545 154.95)" fill="#eeb7b8"/></g><g transform="translate(182.655 142.091)"><path d="M-2.071-23.078l-1.4-9.505A15.476,15.476,0,0,1-3.7-34.925a15.32,15.32,0,0,1,1.906-6.3c7.771,3.628,16.171,4.918,24.743,4.922,1.131,0,2.421-.106,3.126-.991,1.457,1.677,1.5,4.376.881,6.507s-1.814,4.05-2.606,6.128a8.737,8.737,0,0,1-1.492,3.011c-1.189,1.281-3.117,1.5-4.869,1.492a31.133,31.133,0,0,1-5.494-.524c-4.693-.872-9.871-3.236-14.564-2.4" transform="translate(3.7 41.23)" fill="#fff"/></g><g transform="translate(170.444 155.282)"><path d="M-54.444-5.816q-9.047-1.03-17.976-2.906A36.355,36.355,0,0,0-81.26-9.9c-1.937.079-4.02.467-5.723-.493a27.555,27.555,0,0,1-.225,17.144c-1.175,3.3-2.967,6.379-3.83,9.778-1.8,7.11.669,14.863-1.576,21.846a5.524,5.524,0,0,1-1.356,2.43c-.687.63-1.625.955-2.259,1.638-.933,1-.991,2.514-.995,3.883l-.04,12.129c-.026,7.722.075,15.911,4.152,22.453A21.319,21.319,0,0,0-70.156,90a17.063,17.063,0,0,0,6.234-3.051c2.959-2.351,4.843-5.75,6.688-9.061,2.2-3.962,4.4-8.013,5.111-12.473a35.441,35.441,0,0,0-.141-9.554c-1.99-17.61-6.309-35.071-5.38-52.747a15.987,15.987,0,0,1,3.2-8.928" transform="translate(97.266 10.39)" fill="#38d29f"/></g><g transform="translate(186.227 231.121)"><path d="M-69.821-2.492a49.205,49.205,0,0,1-8.822,0c-2.114-.264-4.176-.806-6.273-1.175A39.082,39.082,0,0,0-117.292,5.7c-1.623,1.444-3.263,3.659-2.367,5.679.964,2.175,3.91,2.113,6.18,1.708a18.731,18.731,0,0,0-6.341,5.164,3.983,3.983,0,0,0-1.112,2.8c.258,2.179,3.1,2.576,5.2,2.386a1.864,1.864,0,0,0,.647,2.642,4.178,4.178,0,0,0,2.938.225,21.2,21.2,0,0,0,6.239-2.25,2.512,2.512,0,0,0,1.268,2.879,5.031,5.031,0,0,0,3.259.313c5.166-.881,9.477-4.623,14.516-6.093,8.057-2.347,16.486,1.4,24.86,1.66a16.727,16.727,0,0,0,7.7-1.321c2.929-1.387,5.292-3.989,8.387-4.913,3.437-1.021,7.381.154,10.526-1.611,2.287-1.281.224-11.156-.359-13.058C-36.824-1.563-37.9-3.87-41.461-4.222c-9.017-.92-19.276,1.184-28.36,1.73" transform="translate(120.948 4.452)" fill="#eeb7b8"/></g><g transform="translate(261.901 228.602)"><path d="M0-2.088S14.216,9.944,6.014,23.073L21.863,17.6V6.114c0-.546-6.018-8.748-6.018-8.748l-7.11-1.1Z" transform="translate(0 3.73)" fill="#fff"/></g></g><g transform="translate(-705.849 -936.944)"><path d="M973.1,348.446c1.735-2.5-1.524-9.851-.7-18.178s.632-9.748,2.2-15.747,6.28-4.086,6.28-4.086,11.151,9.034,23.464,9.034,17.214-8.121,25.231-9.034,7.407,12.45,7.407,12.45a100.533,100.533,0,0,0,.53,11.928c.684,6.561-1.631,9.878.623,9.878s.121-3.028,1.691-12.281,2.624-17.652,1.152-23.2-4.564-6.853-4.564-6.853-.473-1.74-5.45-8.22-15.9-9.66-15.9-9.66,3.461-2.827,3.611-6.044c-.6-3.982-.6-5.054-3.611-8.729-3.241-2-8.275-3.181-14.293-1.531-6.944,2.592-5.718,8.576-5.868,10.261,1.042,5.537,3.079,5.69,2.847,6.044-1.158.589-4.108,1.079-7.06,1.767-7.072,2.757-9.926,5.271-13.773,9.9s-3.819,7.893-3.819,7.893-1.55,1.055-3.1,5.176-1.429,6.711-1.053,15.34,1.955,11.881,1.955,11.881S971.363,350.943,973.1,348.446Z" transform="translate(-39.469 45.472)" fill="#3f3d56"/><path d="M973.267,347.685c1.8-2.476-1.583-9.767-.725-18.024s.657-9.666,2.287-15.613S981.35,310,981.35,310s11.577,8.957,24.362,8.957,17.872-8.052,26.2-8.957,7.69,12.344,7.69,12.344a95.273,95.273,0,0,0,.551,11.827c.711,6.505-3.7,11.707-1.358,11.707s2.13-4.915,3.76-14.089,2.725-17.5,1.2-23a9.276,9.276,0,0,0-6.136-6.639s-.076-2.862-5.243-9.286-13.671-8.6-13.671-8.6a12.594,12.594,0,0,0,2.217-5.992c-.625-3.948-.951-5.011-4.075-8.655-3.365-1.986-7.579-2.933-13.828-1.3-7.21,2.57-6.949,8.283-7.105,9.954,1.081,5.49,3.2,5.642,2.956,5.992-1.2.584-4.265,1.069-7.33,1.752-7.342,2.733-10.305,5.226-14.3,9.812s-3.965,7.826-3.965,7.826-1.609,1.046-3.223,5.133-1.483,6.654-1.093,15.21,2.03,11.78,2.03,11.78S971.465,350.16,973.267,347.685Z" transform="translate(-40.607 44.816)" fill="#3f3d56" opacity="0.2"/><path d="M1081.431,152.9l1.954,2.215a33.235,33.235,0,0,0,1.159,7.566c1.155,4.406,6.1,10.765,6.1,10.765l3.7,15.051,4.479,5.987.734-19.006s5.847-3.685,9.643-4.37a9.9,9.9,0,0,1,6.765,1.334s2.08-2.032,6.5-1.347,9.954,4.383,9.954,4.383v16.794l6.346-6.288,2.83-12.539s5.228-6.334,5.811-8.58,1.392-10.453,1.392-10.453l1.686-1.507-.821,18.934s-.692,11.311-8.859,19.855-13.47,14.7-23.376,15.219-18.6-7.863-18.6-7.863-11.672-9.124-14.5-19.451S1081.431,152.9,1081.431,152.9Z" transform="translate(-150.359 227.609)" fill="#3f3d56"/><path d="M1109.131,197.764a10.42,10.42,0,0,1-5.526-3.637c-2.247-2.936-2.594-11.479-2.594-11.479a7.612,7.612,0,0,1,1.015-4.546c1.325-2.074,1.579-2.227,4.426-3.165s8.074-.586,8.074-.586a30.292,30.292,0,0,1,7.34.586c3.331.8,3.978,1.135,5.672,2.892s1.134,6.591,1.134,6.591-.137,5.462-2.175,8.8a11.818,11.818,0,0,1-5.977,4.546Z" transform="translate(-149.158 229.1)" fill="#fbbebe"/><path d="M945.685,365.469c.157-.459,3.161.67,4.214.723s4.239-1.077,4.463-.723-3.725,4.356-4.463,4.3S945.529,365.928,945.685,365.469Z" transform="translate(15.577 44.45)" fill="#3f3d56" stroke="#3f3d56" stroke-linecap="round" stroke-linejoin="round" stroke-width="0.1"/></g></g></g></svg>